<?xml version="1.0" encoding="utf-8"?>
<!-- Svg Vector Icons : http://www.onlinewebfonts.com/icon -->
<!DOCTYPE svg PUBLIC "-//W3C//DTD SVG 1.1//EN" "http://www.w3.org/Graphics/SVG/1.1/DTD/svg11.dtd">
<svg version="1.1" xmlns="http://www.w3.org/2000/svg" xmlns:xlink="http://www.w3.org/1999/xlink" x="0px" y="0px" viewBox="0 0 256 256" enable-background="new 0 0 256 256" xml:space="preserve">
<g><g><g><path fill="#000000" d="M119.9,11.2c-0.9,0.9-1.2,1.7-1.2,3.2s-0.2,2-0.8,2c-0.4,0-2.9,0.7-5.4,1.5l-4.6,1.6v10.2c0,9.6,0,10.3-1,11.5c-1.3,1.7-4.2,1.8-5.7,0.2c-0.8-0.9-1-2.1-1.2-9.2l-0.2-8.1l-2,1.5C86.5,33.8,78.1,48.4,77,61.4l-0.3,3.4l-3.4,3.2c-3.3,3.1-3.4,3.3-3.1,5.1c1.1,7,14,13.2,32.8,15.8c7.6,1.1,32.5,1.5,41.4,0.8c19-1.6,32.5-5.8,38.8-11.8c4.2-4.1,4-6.2-0.9-9.9l-3.4-2.6l-0.3-3.3c-1.4-13.6-8.8-27.2-19.4-35.5l-3-2.3l-0.1,8.1c-0.1,7.1-0.2,8.2-1.1,9.1c-1.4,1.6-4.3,1.4-5.7-0.2c-1-1.2-1-1.9-1-11.4v-10l-2.3-0.9c-1.2-0.5-3.6-1.4-5.4-1.8l-3.1-0.8v-1.9c0-1.3-0.3-2.2-1.2-3.1c-1.1-1.2-1.4-1.2-8.1-1.2C121.3,10,121,10.1,119.9,11.2z"/><path fill="#000000" d="M79.4,93c-3.7,5.4-3,18.1,1.8,27.5c1.6,3.2,4.8,7.9,7,10.3c1.1,1.2,2.3,3.2,3,5.2c6.5,19,22.9,31.7,39.2,30.3c15-1.2,28.8-13.4,34.5-30.3c0.7-1.9,1.8-3.9,3-5.2c2.2-2.4,5.4-7,6.9-10.1c4.2-8.3,5.5-20.4,2.7-26.2c-1.4-3-1.8-3.1-5.8-1.9c-15.4,4.5-38.9,6.5-58.4,5c-9.3-0.7-21.8-2.8-27.5-4.4c-2.7-0.8-5-1.5-5.1-1.5C80.4,91.7,79.9,92.3,79.4,93z"/><path fill="#000000" d="M87.6,153.5l-4.3,1.8v23.1v23.1H128h44.8v-23.1v-23.1l-4.3-1.7l-4.3-1.8l-1.2,1.6c-5,6.4-11.4,11.7-18,14.9c-5.6,2.7-9.1,3.6-15,4c-13.1,0.8-26-5.7-36.5-18.4l-1.7-2.1L87.6,153.5z"/><path fill="#000000" d="M62.6,163.9c-14.6,6.5-22,12.2-28.1,21.5c-7.3,11-12.7,28.3-12.7,40.6c0,4.8,0.1,5,4.2,6.7c3.1,1.3,10.7,3.7,15,4.8c1.8,0.4,3.6,0.9,4,1c0.7,0.2,0.8-0.8,1-12.2l0.1-12.5l1.6-3.2c3-6.1,7.6-8.8,15.4-9.2l4.8-0.2v-19.6c0-15.4-0.1-19.6-0.6-19.6C67,162,64.9,162.9,62.6,163.9z"/><path fill="#000000" d="M188,181.6v19.7l5.8,0.1c5.4,0.2,6,0.3,9.1,1.8c3.6,1.8,6.1,4.2,7.9,7.9c1.1,2.2,1.1,2.9,1.3,14.7c0.1,6.8,0.2,12.4,0.3,12.4c0.8,0,11.9-3.4,15.5-4.7c6.4-2.4,6.4-2.4,6.4-7.5c0-10.2-3.7-24-9.5-35.2c-4.1-7.9-10.7-15.3-17.7-19.8c-3.6-2.3-15.4-8.2-17.7-8.7l-1.3-0.3V181.6L188,181.6z"/><path fill="#000000" d="M61.1,229.1v12.4l6.1,0.8c35.6,4.7,84,4.9,119.6,0.3c4.3-0.5,8.4-1.1,9-1.3l1.1-0.2v-12.3v-12.3H129H61.1V229.1z"/></g></g></g>
</svg>